<svg width="152" height="52" viewBox="0 0 152 52" fill="none" xmlns="http://www.w3.org/2000/svg">
<path d="M59.3994 33.6343C58.1982 33.6343 57.228 33.2642 56.4887 32.5702C55.7495 31.8299 55.3799 30.8582 55.3799 29.6552C55.3799 28.915 55.5185 28.3135 55.8419 27.7582C56.1653 27.203 56.6273 26.6941 57.2742 26.2776C57.921 25.8612 58.7526 25.5374 59.7691 25.2597C60.5545 25.0284 61.4785 24.8433 62.5412 24.7045C63.0494 24.612 63.419 24.103 63.2342 23.5941C63.1418 23.2702 63.0032 22.9926 62.8184 22.715C62.6336 22.4374 62.4026 22.2523 62.0792 22.1135C61.7557 21.9747 61.3861 21.8821 60.9241 21.8821C60.2773 21.8821 59.5843 22.021 58.9374 22.2523C58.5678 22.3911 58.1982 22.5762 57.8286 22.7612C57.4128 22.9926 56.8583 22.8538 56.6273 22.3911L56.3039 21.8821C56.0729 21.4657 56.2115 20.9105 56.6735 20.6792C57.228 20.3553 57.8286 20.1239 58.4754 19.8463C59.3994 19.4762 60.4159 19.3374 61.5247 19.3374C63.2342 19.3374 64.4817 19.8463 65.3133 20.8642C66.1449 21.8821 66.6069 23.3165 66.6069 25.2135V33.3105H65.4981C64.6203 33.3105 63.881 32.6627 63.7424 31.8299H63.65C63.0494 32.3388 62.4026 32.8015 61.6633 33.1254C60.9703 33.4493 60.2311 33.6343 59.3994 33.6343ZM60.4159 31.1358C60.9703 31.1358 61.4785 30.997 61.8944 30.7657C62.3564 30.4881 62.8646 30.1179 63.3728 29.6552V26.6015C62.4488 26.6941 61.6633 26.8791 61.0627 27.0642C60.4159 27.2493 59.9077 27.4806 59.5381 27.712C59.1684 27.9433 58.8912 28.1747 58.7064 28.4985C58.5216 28.8224 58.4754 29.1 58.4754 29.4239C58.4754 30.0254 58.6602 30.4881 59.0298 30.7657C59.3994 30.997 59.8615 31.1358 60.4159 31.1358ZM81.9922 38.6776C80.2365 38.6776 78.8043 37.2433 78.8043 35.4851V34.1896L78.8505 33.2642C78.8505 32.8015 78.3884 32.5239 77.9726 32.709L77.1872 33.1254C76.5404 33.4493 75.8473 33.5881 75.1543 33.5881C73.4448 33.5881 72.0588 32.9866 71.0423 31.7373C70.0259 30.4881 69.5639 28.7299 69.5639 26.4627C69.5639 25.3523 69.7025 24.3344 70.0259 23.4553C70.3493 22.5762 70.8113 21.8359 71.3195 21.1881C71.874 20.5866 72.4746 20.1239 73.1676 19.7538C73.8606 19.4299 74.5999 19.2448 75.3391 19.2448C76.1245 19.2448 76.7714 19.3836 77.372 19.6613C77.9726 19.9389 78.527 20.309 79.1277 20.8642H79.2201C79.3587 20.1239 80.0517 19.5687 80.8371 19.5687H82.0384L81.9922 38.6776ZM75.9397 30.997C76.9562 30.997 77.9264 30.4881 78.8043 29.4702V23.1314C78.3422 22.715 77.834 22.3911 77.372 22.2523C76.91 22.0672 76.4942 22.0209 76.0321 22.0209C75.1543 22.0209 74.4151 22.3911 73.7682 23.1777C73.1676 23.9642 72.8442 25.0747 72.8442 26.509C72.8442 27.9896 73.1214 29.1 73.6296 29.8866C74.1841 30.6269 74.9233 30.997 75.9397 30.997ZM90.0775 33.6343C88.5991 33.6343 87.5364 33.1716 86.8896 32.2463C86.2428 31.3209 85.8731 29.9791 85.8731 28.2209V19.6613H89.1073V27.8045C89.1073 28.915 89.2921 29.7478 89.6155 30.2105C89.9389 30.6732 90.4933 30.9045 91.2326 30.9045C91.8332 30.9045 92.3414 30.7657 92.8034 30.4418C93.2654 30.1642 93.7737 29.6552 94.2819 29.0075V19.6613H97.4236V33.3105H96.823C95.6679 33.3105 94.6977 32.4314 94.5591 31.3209H94.4667C93.8661 32.0149 93.2192 32.5702 92.5262 33.0328C91.8332 33.403 91.0478 33.6343 90.0775 33.6343ZM101.443 30.1179V21.9747C101.443 20.7254 102.46 19.7075 103.707 19.7075H104.631V33.3567C102.875 33.3105 101.443 31.8761 101.443 30.1179ZM103.06 17.3016C102.506 17.3016 101.998 17.1165 101.628 16.7926C101.258 16.4687 101.074 16.006 101.074 15.4971C101.074 14.9419 101.258 14.5255 101.628 14.2016C101.998 13.8314 102.46 13.6926 103.06 13.6926C103.615 13.6926 104.123 13.8777 104.493 14.2016C104.862 14.5255 105.047 14.9881 105.047 15.4971C105.047 16.0523 104.862 16.4687 104.493 16.7926C104.123 17.1165 103.615 17.3016 103.06 17.3016ZM109.251 30.1179V22.206C108.235 22.206 107.403 21.3732 107.403 20.3553V19.8001L109.251 19.6613V18.2269C109.251 17.5329 109.344 16.8852 109.482 16.2837C109.667 15.6822 109.898 15.1732 110.268 14.7105C110.637 14.2478 111.099 13.924 111.654 13.6926C112.208 13.4613 112.901 13.3225 113.733 13.3225C114.195 13.3225 114.657 13.3687 115.073 13.4613C115.535 13.5538 115.904 13.6464 116.228 13.7852L115.627 16.1911C115.119 15.9598 114.611 15.8672 114.149 15.8672C112.994 15.8672 112.439 16.6538 112.439 18.1807V19.6613H112.578C113.964 19.6613 115.119 20.7717 115.119 22.206H112.439V33.3105C110.684 33.3105 109.251 31.8761 109.251 30.1179ZM123.066 33.6343C122.142 33.6343 121.264 33.4955 120.432 33.1716C119.601 32.8478 118.908 32.3851 118.307 31.7373C117.706 31.1358 117.198 30.3955 116.875 29.5164C116.551 28.6373 116.366 27.6194 116.366 26.509C116.366 25.3985 116.551 24.3806 116.875 23.5015C117.244 22.6224 117.706 21.8821 118.261 21.2344C118.861 20.6329 119.508 20.1702 120.294 19.8001C121.033 19.4762 121.818 19.2911 122.604 19.2911C123.528 19.2911 124.359 19.4299 125.052 19.7538C125.745 20.0777 126.346 20.4941 126.808 21.0956C127.27 21.6508 127.64 22.3448 127.871 23.1314C128.102 23.918 128.24 24.7971 128.24 25.7224C128.24 26.0463 128.24 26.3239 128.194 26.6015C128.148 26.9717 127.871 27.2493 127.501 27.2493H120.663C120.016 27.2493 119.554 27.897 119.739 28.4985C119.97 29.1463 120.294 29.6552 120.756 30.0717C121.495 30.7194 122.373 31.0433 123.481 31.0433C124.082 31.0433 124.637 30.9508 125.099 30.812C126.023 30.4881 127.039 30.812 127.501 31.6911L127.686 32.0612C127.039 32.4776 126.3 32.8478 125.514 33.1254C124.729 33.4955 123.897 33.6343 123.066 33.6343ZM119.416 25.2135H125.468C125.468 24.1493 125.237 23.3165 124.775 22.7612C124.313 22.1598 123.62 21.8359 122.696 21.8359C121.864 21.8359 121.171 22.1135 120.571 22.715C119.924 23.2239 119.554 24.103 119.416 25.2135ZM131.29 30.1179V19.6613H133.923L134.154 22.0672H134.247C134.709 21.1881 135.309 20.4941 136.002 20.0314C136.695 19.5687 137.388 19.2911 138.128 19.2911C138.774 19.2911 139.283 19.3836 139.698 19.5687L139.144 22.3448C138.913 22.2523 138.682 22.206 138.497 22.1598C138.312 22.1135 138.035 22.1135 137.758 22.1135C137.203 22.1135 136.649 22.3448 136.048 22.7612C135.448 23.1777 134.94 23.8717 134.524 24.9359V33.2642C132.722 33.3105 131.29 31.8761 131.29 30.1179ZM144.18 33.6343C142.979 33.6343 142.008 33.2642 141.269 32.5702C140.53 31.8299 140.16 30.8582 140.16 29.6552C140.16 28.915 140.299 28.3135 140.622 27.7582C140.946 27.203 141.408 26.6941 142.055 26.2776C142.701 25.8612 143.533 25.5374 144.55 25.2597C145.566 24.9821 146.767 24.7508 148.2 24.612C148.2 24.2418 148.107 23.918 148.015 23.5941C147.922 23.2702 147.784 22.9926 147.599 22.715C147.414 22.4374 147.183 22.2523 146.86 22.1135C146.536 21.9747 146.167 21.8821 145.705 21.8821C145.058 21.8821 144.365 22.021 143.718 22.2523C143.071 22.5299 142.47 22.8075 141.87 23.1777L140.715 21.0493C141.454 20.5866 142.332 20.1702 143.256 19.8001C144.18 19.4299 145.196 19.2911 146.305 19.2911C148.015 19.2911 149.262 19.8001 150.094 20.818C150.925 21.8359 151.387 23.2702 151.387 25.1672V33.2642H150.279C149.401 33.2642 148.662 32.6164 148.523 31.7836H148.431C147.83 32.2925 147.183 32.7552 146.444 33.0791C145.751 33.4493 145.012 33.6343 144.18 33.6343ZM145.196 31.1358C145.751 31.1358 146.259 30.997 146.675 30.7657C147.137 30.4881 147.645 30.1179 148.153 29.6552V26.6015C147.229 26.6941 146.444 26.8791 145.843 27.0642C145.196 27.2493 144.688 27.4806 144.319 27.712C143.949 27.9433 143.672 28.1747 143.487 28.4985C143.302 28.7761 143.256 29.1 143.256 29.4239C143.256 30.0254 143.441 30.4881 143.81 30.7657C144.18 30.997 144.642 31.1358 145.196 31.1358Z" fill="#2E7CAB"/>
<path fill-rule="evenodd" clip-rule="evenodd" d="M13.6133 39.6133C6.09461 39.6133 0 33.5187 0 26C0 18.4835 6.09461 12.3867 13.6133 12.3867H29.6352C29.8514 12.3867 30.0224 12.3867 30.2171 12.3867C37.7358 12.3867 43.8305 18.4835 43.8305 26C43.8305 33.5187 37.7358 39.6133 30.2171 39.6133C30.0224 39.6133 29.8514 39.6133 29.6352 39.6133H13.6133Z" fill="#2E7CAB"/>
<path fill-rule="evenodd" clip-rule="evenodd" d="M1.6236 26C1.6236 32.622 6.9913 37.9897 13.6133 37.9897H30.2171C36.8392 37.9897 42.2069 32.622 42.2069 26C42.2069 19.38 36.839 14.0103 30.2171 14.0103H13.6133C6.99147 14.0103 1.6236 19.38 1.6236 26ZM0 26C0 33.5187 6.09461 39.6133 13.6133 39.6133H30.2171C37.7358 39.6133 43.8305 33.5187 43.8305 26C43.8305 18.4835 37.7358 12.3867 30.2171 12.3867H13.6133C6.09461 12.3867 0 18.4835 0 26Z" fill="#2E7CAB"/>
<g opacity="0.15" filter="url(#filter0_f)">
<path d="M30.5551 39.3972C37.9677 39.3972 43.9768 33.3881 43.9768 25.9754C43.9768 18.5628 37.9677 12.5537 30.5551 12.5537C23.1424 12.5537 17.1333 18.5628 17.1333 25.9754C17.1333 33.3881 23.1424 39.3972 30.5551 39.3972Z" fill="#2E7CAB"/>
</g>
<path d="M31.2105 37.7853C37.7297 37.7853 43.0147 32.5004 43.0147 25.9811C43.0147 19.4618 37.7297 14.1769 31.2105 14.1769C24.6912 14.1769 19.4062 19.4618 19.4062 25.9811C19.4062 32.5004 24.6912 37.7853 31.2105 37.7853Z" fill="white"/>
<path fill-rule="evenodd" clip-rule="evenodd" d="M44.6383 25.9811C44.6383 33.3971 38.6265 39.4089 31.2105 39.4089C23.7945 39.4089 17.7827 33.3971 17.7827 25.9811C17.7827 18.5651 23.7945 12.5533 31.2105 12.5533C38.6265 12.5533 44.6383 18.5651 44.6383 25.9811ZM43.0147 25.9811C43.0147 32.5004 37.7298 37.7853 31.2105 37.7853C24.6912 37.7853 19.4063 32.5004 19.4063 25.9811C19.4063 19.4618 24.6912 14.1769 31.2105 14.1769C37.7298 14.1769 43.0147 19.4618 43.0147 25.9811Z" fill="#2E7CAB"/>
<path d="M35.4367 21.1509C36.2353 21.1509 36.8827 20.5035 36.8827 19.7049C36.8827 18.9063 36.2353 18.2589 35.4367 18.2589C34.6381 18.2589 33.9907 18.9063 33.9907 19.7049C33.9907 20.5035 34.6381 21.1509 35.4367 21.1509Z" fill="#2E7CAB"/>
<path fill-rule="evenodd" clip-rule="evenodd" d="M25.8049 27.0136C25.5511 30.085 27.8941 33.211 31.3439 33.141C35.9291 33.047 38.7882 26.6308 34.203 23.0891C33.2689 22.3672 32.6105 21.1312 32.512 20.0943C32.3983 18.8955 32.7024 18.2348 31.7858 18.7533C31.1011 19.1427 30.5367 19.6458 29.9788 20.0943C27.3865 22.1834 26.0084 24.5416 25.8049 27.0136Z" fill="#2E7CAB"/>
<defs>
<filter id="filter0_f" x="5.1333" y="0.55368" width="50.8435" height="50.8435" filterUnits="userSpaceOnUse" color-interpolation-filters="sRGB">
<feFlood flood-opacity="0" result="BackgroundImageFix"/>
<feBlend mode="normal" in="SourceGraphic" in2="BackgroundImageFix" result="shape"/>
<feGaussianBlur stdDeviation="6" result="effect1_foregroundBlur"/>
</filter>
</defs>
</svg>
