<svg width="57" height="52" viewBox="0 0 57 52" fill="none" xmlns="http://www.w3.org/2000/svg">
<path fill-rule="evenodd" clip-rule="evenodd" d="M14.1133 40.0467C6.59461 40.0467 0.5 33.9521 0.5 26.4334C0.5 18.9169 6.59461 12.8201 14.1133 12.8201H30.1352C30.3514 12.8201 30.5224 12.8201 30.7171 12.8201C38.2358 12.8201 44.3305 18.9169 44.3305 26.4334C44.3305 33.9521 38.2358 40.0467 30.7171 40.0467C30.5224 40.0467 30.3514 40.0468 30.1352 40.0467H14.1133Z" fill="#2E7CAB"/>
<path fill-rule="evenodd" clip-rule="evenodd" d="M2.1236 26.4334C2.1236 33.0554 7.4913 38.4232 14.1133 38.4232H30.7171C37.3392 38.4232 42.7069 33.0555 42.7069 26.4334C42.7069 19.8134 37.339 14.4437 30.7171 14.4437H14.1133C7.49147 14.4437 2.1236 19.8134 2.1236 26.4334ZM0.5 26.4334C0.5 33.9521 6.59461 40.0468 14.1133 40.0468H30.7171C38.2358 40.0468 44.3305 33.9521 44.3305 26.4334C44.3305 18.9169 38.2358 12.8201 30.7171 12.8201H14.1133C6.59461 12.8201 0.5 18.9169 0.5 26.4334Z" fill="#2E7CAB"/>
<g opacity="0.15" filter="url(#filter0_f)">
<path d="M31.055 39.8307C38.4677 39.8307 44.4768 33.8216 44.4768 26.4089C44.4768 18.9963 38.4677 12.9872 31.055 12.9872C23.6424 12.9872 17.6333 18.9963 17.6333 26.4089C17.6333 33.8216 23.6424 39.8307 31.055 39.8307Z" fill="black"/>
</g>
<path d="M31.7104 38.2188C38.2297 38.2188 43.5146 32.9338 43.5146 26.4146C43.5146 19.8953 38.2297 14.6104 31.7104 14.6104C25.1911 14.6104 19.9062 19.8953 19.9062 26.4146C19.9062 32.9338 25.1911 38.2188 31.7104 38.2188Z" fill="white"/>
<path fill-rule="evenodd" clip-rule="evenodd" d="M45.1382 26.4146C45.1382 33.8306 39.1264 39.8424 31.7104 39.8424C24.2945 39.8424 18.2826 33.8306 18.2826 26.4146C18.2826 18.9987 24.2945 12.9868 31.7104 12.9868C39.1264 12.9868 45.1382 18.9987 45.1382 26.4146ZM43.5146 26.4146C43.5146 32.9339 38.2297 38.2188 31.7104 38.2188C25.1911 38.2188 19.9062 32.9339 19.9062 26.4146C19.9062 19.8953 25.1911 14.6104 31.7104 14.6104C38.2297 14.6104 43.5146 19.8953 43.5146 26.4146Z" fill="#2E7CAB"/>
<path d="M35.9368 21.5845C36.7354 21.5845 37.3828 20.9371 37.3828 20.1385C37.3828 19.3399 36.7354 18.6925 35.9368 18.6925C35.1382 18.6925 34.4908 19.3399 34.4908 20.1385C34.4908 20.9371 35.1382 21.5845 35.9368 21.5845Z" fill="#2E7CAB"/>
<path fill-rule="evenodd" clip-rule="evenodd" d="M26.3049 27.4471C26.0511 30.5185 28.394 33.6445 31.8438 33.5745C36.429 33.4805 39.2882 27.0643 34.703 23.5226C33.7689 22.8007 33.1105 21.5647 33.012 20.5278C32.8983 19.329 33.2023 18.6683 32.2857 19.1868C31.601 19.5762 31.0366 20.0793 30.4788 20.5278C27.8865 22.6169 26.5083 24.9751 26.3049 27.4471Z" fill="#2E7CAB"/>
<defs>
<filter id="filter0_f" x="5.63327" y="0.987183" width="50.8435" height="50.8435" filterUnits="userSpaceOnUse" color-interpolation-filters="sRGB">
<feFlood flood-opacity="0" result="BackgroundImageFix"/>
<feBlend mode="normal" in="SourceGraphic" in2="BackgroundImageFix" result="shape"/>
<feGaussianBlur stdDeviation="6" result="effect1_foregroundBlur"/>
</filter>
</defs>
</svg>
