<svg width="116" height="100" viewBox="0 0 116 100" fill="none" xmlns="http://www.w3.org/2000/svg">
<path d="M38.6273 68.7546C21.9878 68.7546 8.5 55.2668 8.5 38.6273C8.5 21.9927 21.9879 8.5 38.6273 8.5H74.6733H75.9825C92.622 8.5 106.11 21.9927 106.11 38.6273C106.11 55.2668 92.622 68.7546 75.9825 68.7546H74.6734H38.6273Z" fill="#2E7CAB" stroke="white"/>
<path fill-rule="evenodd" clip-rule="evenodd" d="M11.6528 38.6273C11.6528 53.5256 23.729 65.6019 38.6273 65.6019H75.9825C90.8808 65.6019 102.957 53.5256 102.957 38.6273C102.957 23.7336 90.8804 11.6528 75.9825 11.6528H38.6273C23.7294 11.6528 11.6528 23.7336 11.6528 38.6273ZM8 38.6273C8 55.543 21.7117 69.2546 38.6273 69.2546H75.9825C92.8982 69.2546 106.61 55.543 106.61 38.6273C106.61 21.7166 92.8982 8 75.9825 8H38.6273C21.7117 8 8 21.7166 8 38.6273Z" fill="#2E7CAB"/>
<path d="M78.2168 65.1426C92.8839 65.1426 104.774 53.2525 104.774 38.5854C104.774 23.9184 92.8839 12.0283 78.2168 12.0283C63.5497 12.0283 51.6597 23.9184 51.6597 38.5854C51.6597 53.2525 63.5497 65.1426 78.2168 65.1426Z" fill="white"/>
<path fill-rule="evenodd" clip-rule="evenodd" d="M108.427 38.5849C108.427 55.2694 94.9012 68.7948 78.2167 68.7948C61.5323 68.7948 48.0068 55.2694 48.0068 38.5849C48.0068 21.9004 61.5323 8.375 78.2167 8.375C94.9012 8.375 108.427 21.9004 108.427 38.5849ZM104.774 38.5849C104.774 53.252 92.8838 65.142 78.2167 65.142C63.5496 65.142 51.6596 53.252 51.6596 38.5849C51.6596 23.9178 63.5496 12.0278 78.2167 12.0278C92.8838 12.0278 104.774 23.9178 104.774 38.5849Z" fill="#2E7CAB"/>
<path d="M87.7254 27.7183C89.5221 27.7183 90.9786 26.2618 90.9786 24.4651C90.9786 22.6684 89.5221 21.2119 87.7254 21.2119C85.9287 21.2119 84.4722 22.6684 84.4722 24.4651C84.4722 26.2618 85.9287 27.7183 87.7254 27.7183Z" fill="#2E7CAB"/>
<path fill-rule="evenodd" clip-rule="evenodd" d="M66.0554 40.9085C65.4845 47.8185 70.7556 54.8515 78.517 54.694C88.8327 54.4823 95.2653 40.0472 84.9496 32.0791C82.848 30.4549 81.3666 27.6742 81.1451 25.3414C80.8892 22.6443 81.5733 21.158 79.5112 22.3244C77.9707 23.2005 76.7009 24.3324 75.4459 25.3414C69.6138 30.0415 66.5131 35.347 66.0554 40.9085Z" fill="#2E7CAB"/>
<path d="M17.6216 94.879C16.5455 94.879 15.6764 94.5578 15.0143 93.9556C14.3521 93.3133 14.021 92.4702 14.021 91.4264C14.021 90.7841 14.1452 90.2622 14.4349 89.7804C14.7246 89.2987 15.1384 88.8571 15.7178 88.4958C16.2972 88.1344 17.0422 87.8534 17.9527 87.6125C18.6562 87.4118 19.4839 87.2512 20.4358 87.1308C20.8911 87.0505 21.2222 86.6089 21.0566 86.1673C20.9738 85.8863 20.8497 85.6454 20.6841 85.4045C20.5186 85.1636 20.3117 85.0031 20.022 84.8826C19.7323 84.7622 19.4012 84.6819 18.9873 84.6819C18.4079 84.6819 17.7871 84.8023 17.2077 85.0031C16.8766 85.1235 16.5455 85.2841 16.2145 85.4447C15.842 85.6454 15.3453 85.525 15.1384 85.1235L14.8487 84.6819C14.6418 84.3206 14.7659 83.8388 15.1798 83.6381C15.6764 83.3571 16.2145 83.1563 16.7939 82.9155C17.6216 82.5943 18.5321 82.4739 19.5253 82.4739C21.0566 82.4739 22.174 82.9155 22.919 83.7987C23.6639 84.6819 24.0778 85.9264 24.0778 87.5724V94.5979H23.0845C22.2982 94.5979 21.636 94.0359 21.5119 93.3133H21.4291C20.8911 93.7549 20.3117 94.1563 19.6495 94.4374C19.0287 94.7184 18.3665 94.879 17.6216 94.879ZM18.5321 92.7111C19.0287 92.7111 19.4839 92.5906 19.8564 92.3899C20.2703 92.149 20.7255 91.8279 21.1808 91.4264V88.7768C20.353 88.8571 19.6495 89.0177 19.1115 89.1782C18.5321 89.3388 18.0768 89.5396 17.7457 89.7403C17.4146 89.941 17.1663 90.1417 17.0008 90.4228C16.8352 90.7038 16.7939 90.9447 16.7939 91.2257C16.7939 91.7476 16.9594 92.149 17.2905 92.3899C17.6216 92.5906 18.0354 92.7111 18.5321 92.7111ZM37.8593 99.2549C36.2866 99.2549 35.0037 98.0104 35.0037 96.4848V95.3607L35.0451 94.5578C35.0451 94.1563 34.6312 93.9155 34.2587 94.076L33.5552 94.4374C32.9758 94.7184 32.355 94.8388 31.7342 94.8388C30.2029 94.8388 28.9613 94.3169 28.0508 93.233C27.1403 92.149 26.7265 90.6235 26.7265 88.6563C26.7265 87.6928 26.8506 86.8096 27.1403 86.0469C27.43 85.2841 27.8439 84.6417 28.2991 84.0797C28.7958 83.5578 29.3338 83.1563 29.9546 82.8352C30.5754 82.5542 31.2376 82.3936 31.8997 82.3936C32.6033 82.3936 33.1827 82.514 33.7207 82.7549C34.2587 82.9958 34.7554 83.3169 35.2934 83.7987H35.3761C35.5003 83.1563 36.1211 82.6746 36.8247 82.6746H37.9007L37.8593 99.2549ZM32.4377 92.5906C33.3482 92.5906 34.2173 92.149 35.0037 91.2658V85.7658C34.5898 85.4045 34.1346 85.1235 33.7207 85.0031C33.3068 84.8425 32.9344 84.8023 32.5205 84.8023C31.7342 84.8023 31.072 85.1235 30.4926 85.806C29.9546 86.4885 29.6649 87.452 29.6649 88.6965C29.6649 89.9812 29.9132 90.9447 30.3684 91.6271C30.8651 92.2695 31.5273 92.5906 32.4377 92.5906ZM45.1018 94.879C43.7775 94.879 42.8256 94.4775 42.2462 93.6746C41.6668 92.8717 41.3357 91.7074 41.3357 90.1819V82.7549H44.2327V89.8206C44.2327 90.7841 44.3983 91.5067 44.688 91.9082C44.9777 92.3096 45.4743 92.5104 46.1365 92.5104C46.6745 92.5104 47.1298 92.3899 47.5436 92.1089C47.9575 91.868 48.4127 91.4264 48.868 90.8644V82.7549H51.6822V94.5979H51.1442C50.1095 94.5979 49.2404 93.8352 49.1163 92.8717H49.0335C48.4955 93.4739 47.9161 93.9556 47.2953 94.3571C46.6745 94.6782 45.9709 94.879 45.1018 94.879ZM55.2828 91.8279V84.7622C55.2828 83.6782 56.1933 82.795 57.3107 82.795H58.1384V94.6381C56.5658 94.5979 55.2828 93.3534 55.2828 91.8279ZM56.7313 80.7074C56.2347 80.7074 55.7794 80.5469 55.4483 80.2658C55.1172 79.9848 54.9517 79.5833 54.9517 79.1417C54.9517 78.66 55.1172 78.2987 55.4483 78.0177C55.7794 77.6965 56.1933 77.5761 56.7313 77.5761C57.2279 77.5761 57.6832 77.7366 58.0143 78.0177C58.3453 78.2987 58.5109 78.7001 58.5109 79.1417C58.5109 79.6235 58.3453 79.9848 58.0143 80.2658C57.6832 80.5469 57.2279 80.7074 56.7313 80.7074ZM62.277 91.8279V84.9629C61.3665 84.9629 60.6216 84.2403 60.6216 83.3571V82.8753L62.277 82.7549V81.5104C62.277 80.9082 62.3598 80.3461 62.4839 79.8242C62.6495 79.3023 62.8564 78.8607 63.1875 78.4593C63.5186 78.0578 63.9324 77.7768 64.4291 77.5761C64.9257 77.3753 65.5465 77.2549 66.2915 77.2549C66.7053 77.2549 67.1192 77.295 67.4916 77.3753C67.9055 77.4556 68.2366 77.5359 68.5263 77.6563L67.9883 79.7439C67.533 79.5432 67.0778 79.4629 66.6639 79.4629C65.6293 79.4629 65.1326 80.1454 65.1326 81.4702V82.7549H65.2568C66.4984 82.7549 67.533 83.7184 67.533 84.9629H65.1326V94.5979C63.56 94.5979 62.277 93.3534 62.277 91.8279ZM74.6514 94.879C73.8237 94.879 73.0374 94.7585 72.2924 94.4775C71.5475 94.1965 70.9267 93.795 70.3887 93.233C69.8506 92.7111 69.3954 92.0688 69.1057 91.306C68.816 90.5432 68.6504 89.66 68.6504 88.6965C68.6504 87.733 68.816 86.8498 69.1057 86.087C69.4368 85.3242 69.8506 84.6819 70.3473 84.1198C70.8853 83.5979 71.4647 83.1965 72.1683 82.8753C72.8304 82.5943 73.534 82.4337 74.2375 82.4337C75.0653 82.4337 75.8102 82.5542 76.431 82.8352C77.0518 83.1162 77.5898 83.4775 78.0037 83.9994C78.4175 84.4812 78.7486 85.0834 78.9555 85.7658C79.1625 86.4483 79.2866 87.2111 79.2866 88.014C79.2866 88.295 79.2866 88.5359 79.2452 88.7768C79.2039 89.0979 78.9556 89.3388 78.6245 89.3388H72.4993C71.9199 89.3388 71.5061 89.9009 71.6716 90.4228C71.8785 90.9848 72.1683 91.4264 72.5821 91.7877C73.2443 92.3498 74.0306 92.6308 75.0239 92.6308C75.5619 92.6308 76.0585 92.5505 76.4724 92.4301C77.3001 92.149 78.2106 92.4301 78.6245 93.1928L78.79 93.514C78.2106 93.8753 77.5484 94.1965 76.8449 94.4374C76.1413 94.7585 75.3964 94.879 74.6514 94.879ZM71.3819 87.5724H76.8035C76.8035 86.649 76.5965 85.9264 76.1827 85.4447C75.7688 84.9228 75.148 84.6417 74.3203 84.6417C73.5754 84.6417 72.9546 84.8826 72.4166 85.4045C71.8372 85.8461 71.5061 86.6089 71.3819 87.5724ZM82.0181 91.8279V82.7549H84.3771L84.584 84.8425H84.6668C85.0807 84.0797 85.6187 83.4775 86.2395 83.0761C86.8603 82.6746 87.481 82.4337 88.1432 82.4337C88.7226 82.4337 89.1779 82.514 89.5503 82.6746L89.0537 85.0834C88.8468 85.0031 88.6399 84.9629 88.4743 84.9228C88.3088 84.8826 88.0605 84.8826 87.8121 84.8826C87.3155 84.8826 86.8189 85.0834 86.2809 85.4447C85.7428 85.806 85.2876 86.4082 84.9151 87.3315V94.5578C83.3011 94.5979 82.0181 93.3534 82.0181 91.8279ZM93.5648 94.879C92.4887 94.879 91.6196 94.5578 90.9575 93.9556C90.2953 93.3133 89.9642 92.4702 89.9642 91.4264C89.9642 90.7841 90.0884 90.2622 90.3781 89.7804C90.6678 89.2987 91.0816 88.8571 91.661 88.4958C92.2404 88.1344 92.9854 87.8534 93.8959 87.6125C94.8064 87.3717 95.8824 87.1709 97.1654 87.0505C97.1654 86.7293 97.0826 86.4483 96.9998 86.1673C96.917 85.8863 96.7929 85.6454 96.6273 85.4045C96.4618 85.1636 96.2549 85.0031 95.9652 84.8826C95.6755 84.7622 95.3444 84.6819 94.9305 84.6819C94.3511 84.6819 93.7303 84.8023 93.1509 85.0031C92.5715 85.2439 92.0335 85.4848 91.4955 85.806L90.4608 83.9593C91.123 83.5578 91.9093 83.1965 92.7371 82.8753C93.5648 82.5542 94.4753 82.4337 95.4685 82.4337C96.9998 82.4337 98.1172 82.8753 98.8622 83.7585C99.6071 84.6417 100.021 85.8863 100.021 87.5323V94.5578H99.0277C98.2414 94.5578 97.5792 93.9958 97.4551 93.2731H97.3723C96.8343 93.7147 96.2549 94.1162 95.5927 94.3972C94.9719 94.7184 94.3097 94.879 93.5648 94.879ZM94.4753 92.7111C94.9719 92.7111 95.4272 92.5906 95.7996 92.3899C96.2135 92.149 96.6687 91.8279 97.124 91.4264V88.7768C96.2963 88.8571 95.5927 89.0177 95.0547 89.1782C94.4753 89.3388 94.02 89.5396 93.6889 89.7403C93.3579 89.941 93.1095 90.1417 92.944 90.4228C92.7785 90.6636 92.7371 90.9447 92.7371 91.2257C92.7371 91.7476 92.9026 92.149 93.2337 92.3899C93.5648 92.5906 93.9786 92.7111 94.4753 92.7111Z" fill="#2E7CAB"/>
</svg>
