<svg width="20" height="20" viewBox="0 0 20 20" fill="none" xmlns="http://www.w3.org/2000/svg">
<path d="M10.0001 5.19249C7.33996 5.19249 5.19308 7.33937 5.19308 9.99953C5.19308 12.6597 7.33996 14.8066 10.0001 14.8066C12.6603 14.8066 14.8071 12.6597 14.8071 9.99953C14.8071 7.33937 12.6603 5.19249 10.0001 5.19249ZM10.0001 13.1237C8.2798 13.1237 6.87589 11.7198 6.87589 9.99953C6.87589 8.27921 8.2798 6.87531 10.0001 6.87531C11.7204 6.87531 13.1243 8.27921 13.1243 9.99953C13.1243 11.7198 11.7204 13.1237 10.0001 13.1237ZM15.004 3.87531C14.3829 3.87531 13.8814 4.37687 13.8814 4.99796C13.8814 5.61906 14.3829 6.12062 15.004 6.12062C15.6251 6.12062 16.1267 5.6214 16.1267 4.99796C16.1269 4.85048 16.0979 4.70441 16.0416 4.56812C15.9852 4.43183 15.9026 4.308 15.7983 4.20371C15.694 4.09943 15.5702 4.01674 15.4339 3.96039C15.2976 3.90403 15.1515 3.87512 15.004 3.87531ZM19.3704 9.99953C19.3704 8.70578 19.3821 7.42374 19.3095 6.13234C19.2368 4.63234 18.8946 3.30109 17.7978 2.20421C16.6986 1.10499 15.3696 0.76515 13.8696 0.692494C12.5759 0.619838 11.2939 0.631557 10.0025 0.631557C8.7087 0.631557 7.42667 0.619838 6.13527 0.692494C4.63527 0.76515 3.30402 1.10734 2.20714 2.20421C1.10792 3.30343 0.76808 4.63234 0.695424 6.13234C0.622767 7.42609 0.634486 8.70812 0.634486 9.99953C0.634486 11.2909 0.622767 12.5753 0.695424 13.8667C0.76808 15.3667 1.11027 16.698 2.20714 17.7948C3.30636 18.8941 4.63527 19.2339 6.13527 19.3066C7.42902 19.3792 8.71105 19.3675 10.0025 19.3675C11.2962 19.3675 12.5782 19.3792 13.8696 19.3066C15.3696 19.2339 16.7009 18.8917 17.7978 17.7948C18.897 16.6956 19.2368 15.3667 19.3095 13.8667C19.3845 12.5753 19.3704 11.2933 19.3704 9.99953ZM17.3079 15.5261C17.1368 15.9527 16.9306 16.2714 16.6001 16.5995C16.2696 16.93 15.9532 17.1362 15.5267 17.3073C14.2939 17.7972 11.3665 17.687 10.0001 17.687C8.63371 17.687 5.70402 17.7972 4.47121 17.3097C4.04464 17.1386 3.72589 16.9323 3.39777 16.6019C3.0673 16.2714 2.86105 15.955 2.68996 15.5284C2.20246 14.2933 2.31261 11.3659 2.31261 9.99953C2.31261 8.63312 2.20246 5.70343 2.68996 4.47062C2.86105 4.04406 3.0673 3.72531 3.39777 3.39718C3.72824 3.06906 4.04464 2.86046 4.47121 2.68937C5.70402 2.20187 8.63371 2.31203 10.0001 2.31203C11.3665 2.31203 14.2962 2.20187 15.529 2.68937C15.9556 2.86046 16.2743 3.06671 16.6025 3.39718C16.9329 3.72765 17.1392 4.04406 17.3103 4.47062C17.7978 5.70343 17.6876 8.63312 17.6876 9.99953C17.6876 11.3659 17.7978 14.2933 17.3079 15.5261Z" fill="#2E7CAB"/>
</svg>
